<?xml version="1.0" encoding="iso-8859-1"?>
<!-- Generator: Adobe Illustrator 19.0.0, SVG Export Plug-In . SVG Version: 6.00 Build 0)  -->
<svg version="1.1" id="Capa_1" xmlns="http://www.w3.org/2000/svg" xmlns:xlink="http://www.w3.org/1999/xlink" x="0px" y="0px"
	 viewBox="0 0 512 512" style="enable-background:new 0 0 512 512;" xml:space="preserve">
<g>
	<path style="fill:#FAB9E6;" d="M44.833,42.586C37.023,46.545,31.667,54.645,31.667,64s5.356,17.455,13.167,21.414
		C52.644,81.455,58,73.355,58,64S52.644,46.545,44.833,42.586z"/>
	<path style="fill:#FAB9E6;" d="M489.417,305.365c-7.494,4.061-12.583,11.993-12.583,21.115c0,9.121,5.09,17.055,12.583,21.115
		c7.494-4.06,12.583-11.993,12.583-21.115C502,317.358,496.911,309.426,489.417,305.365z"/>
</g>
<g>
	<path style="fill:#FFFFFF;" d="M318,58H194c-13.255,0-24-10.745-24-24l0,0c0-13.255,10.745-24,24-24h124c13.255,0,24,10.745,24,24
		l0,0C342,47.255,331.255,58,318,58z"/>
	<path style="fill:#FFFFFF;" d="M435.277,456.708L318,253.579V58h-1.178H195.178H194v195.579L76.723,456.708
		C65.101,476.838,79.629,502,102.873,502h306.255C432.371,502,446.899,476.838,435.277,456.708z"/>
</g>
<path style="fill:#E68CBE;" d="M435.277,456.708L318,253.579v-2.755c-0.645,0.202-1,0.313-1,0.313s-31.767,26.303-56.106,9.74
	L150.332,452.375C137.598,474.431,153.516,502,178.983,502h230.145C432.371,502,446.898,476.838,435.277,456.708z"/>
<g>
	<circle style="fill:#FFFFFF;" cx="311.22" cy="426.07" r="24"/>
	<circle style="fill:#FFFFFF;" cx="213" cy="370.48" r="20"/>
</g>
<path d="M281,91.66c-2.63,0-5.21,1.069-7.07,2.93s-2.93,4.44-2.93,7.07c0,2.64,1.069,5.21,2.93,7.069
	c1.86,1.87,4.44,2.931,7.07,2.931s5.21-1.061,7.069-2.931c1.86-1.859,2.931-4.439,2.931-7.069s-1.07-5.2-2.931-7.07
	C286.21,92.729,283.63,91.66,281,91.66z"/>
<path d="M281,133.727c-5.522,0-10,4.478-10,10v72.606c0,5.522,4.478,10,10,10s10-4.478,10-10v-72.606
	C291,138.204,286.522,133.727,281,133.727z"/>
<path d="M328,250.899V66.497c13.882-4.28,24-17.228,24-32.497c0-18.748-15.252-34-34-34H194c-18.748,0-34,15.252-34,34
	c0,15.269,10.118,28.217,24,32.497v184.402l-40.673,70.448c-2.762,4.783-1.123,10.898,3.66,13.66
	c1.575,0.909,3.294,1.342,4.99,1.342c3.456,0,6.818-1.794,8.67-5.002l37.724-65.34c0.757-0.276,1.496-0.635,2.193-1.107
	c1.203-0.812,29.666-19.682,48.147-1.197c9.186,9.186,19.802,12.58,30.288,12.58c12.589-0.001,24.973-4.899,34.475-10.542
	l113.142,195.967c3.65,6.323,3.65,13.872,0,20.195c-3.65,6.322-10.188,10.097-17.488,10.097H102.872
	c-7.301,0-13.838-3.774-17.488-10.097s-3.65-13.872,0-20.195l33.882-58.686c2.762-4.783,1.123-10.898-3.66-13.66
	c-4.784-2.762-10.9-1.123-13.66,3.66l-33.882,58.686c-7.266,12.584-7.266,27.61,0,40.195C75.329,504.487,88.341,512,102.872,512
	h306.256c14.531,0,27.543-7.513,34.809-20.097c7.266-12.585,7.266-27.611,0-40.195L328,250.899z M194,20h124c7.72,0,14,6.28,14,14
	s-6.28,14-14,14H195.178H194c-7.72,0-14-6.28-14-14S186.28,20,194,20z M262.854,249.561c-18.031-18.031-41.772-15.496-58.854-8.824
	V68h104v177.379c-3.249,2.28-9.199,6.048-16.186,8.536C273.672,260.378,265.53,252.237,262.854,249.561z"/>
<path d="M124.74,354.22c-1.86,1.86-2.931,4.43-2.931,7.07c0,2.63,1.07,5.2,2.931,7.069c1.869,1.86,4.449,2.931,7.079,2.931
	c2.631,0,5.2-1.07,7.061-2.931c1.87-1.869,2.939-4.439,2.939-7.069c0-2.641-1.069-5.21-2.939-7.07c-1.86-1.86-4.43-2.93-7.061-2.93
	C129.18,351.29,126.6,352.359,124.74,354.22z"/>
<path d="M424,74h14v14c0,5.522,4.478,10,10,10s10-4.478,10-10V74h14c5.522,0,10-4.478,10-10s-4.478-10-10-10h-14V40
	c0-5.522-4.478-10-10-10s-10,4.478-10,10v14h-14c-5.522,0-10,4.478-10,10S418.478,74,424,74z"/>
<path d="M95,242h14v14c0,5.522,4.478,10,10,10s10-4.478,10-10v-14h14c5.522,0,10-4.478,10-10s-4.478-10-10-10h-14v-14
	c0-5.522-4.478-10-10-10s-10,4.478-10,10v14H95c-5.522,0-10,4.478-10,10S89.478,242,95,242z"/>
<path d="M34,30C15.252,30,0,45.252,0,64s15.252,34,34,34s34-15.252,34-34S52.748,30,34,30z M34,78c-7.72,0-14-6.28-14-14
	s6.28-14,14-14s14,6.28,14,14S41.72,78,34,78z"/>
<path d="M478,292.48c-18.748,0-34,15.252-34,34s15.252,34,34,34s34-15.252,34-34S496.748,292.48,478,292.48z M478,340.48
	c-7.72,0-14-6.28-14-14s6.28-14,14-14s14,6.28,14,14S485.72,340.48,478,340.48z"/>
<path d="M311.218,460.073c18.748,0,34-15.252,34-34s-15.252-34-34-34s-34,15.252-34,34S292.47,460.073,311.218,460.073z
	 M311.218,412.073c7.72,0,14,6.28,14,14s-6.28,14-14,14s-14-6.28-14-14S303.498,412.073,311.218,412.073z"/>
<path d="M243,370.48c0-16.542-13.458-30-30-30s-30,13.458-30,30s13.458,30,30,30S243,387.022,243,370.48z M203,370.48
	c0-5.514,4.486-10,10-10s10,4.486,10,10s-4.486,10-10,10S203,375.994,203,370.48z"/>
<path d="M168.02,445.72c1.86-1.87,2.931-4.45,2.931-7.07c0-2.63-1.07-5.21-2.931-7.08c-1.859-1.859-4.439-2.92-7.069-2.92
	c-2.631,0-5.21,1.061-7.07,2.92c-1.86,1.87-2.93,4.44-2.93,7.08c0,2.63,1.069,5.21,2.93,7.07s4.439,2.93,7.07,2.93
	C163.58,448.649,166.16,447.58,168.02,445.72z"/>
<path d="M294.29,309.55c1.859-1.86,2.93-4.44,2.93-7.07s-1.07-5.21-2.93-7.069c-1.87-1.86-4.44-2.931-7.07-2.931
	s-5.21,1.07-7.07,2.931c-1.87,1.859-2.93,4.439-2.93,7.069s1.06,5.21,2.93,7.07c1.86,1.86,4.44,2.93,7.07,2.93
	S292.43,311.41,294.29,309.55z"/>
<path d="M240,191c-2.63,0-5.21,1.069-7.07,2.93S230,198.37,230,201c0,2.64,1.069,5.21,2.93,7.069c1.86,1.86,4.44,2.931,7.07,2.931
	s5.21-1.07,7.069-2.931C248.93,206.21,250,203.63,250,201s-1.07-5.21-2.931-7.07C245.21,192.069,242.63,191,240,191z"/>
<path d="M236.33,125c0-2.63-1.061-5.21-2.931-7.07c-1.859-1.86-4.43-2.93-7.069-2.93c-2.63,0-5.21,1.069-7.07,2.93
	s-2.93,4.44-2.93,7.07s1.069,5.21,2.93,7.069c1.86,1.86,4.44,2.931,7.07,2.931s5.21-1.07,7.069-2.931
	C235.27,130.21,236.33,127.63,236.33,125z"/>
<path d="M405,195c2.63,0,5.21-1.07,7.069-2.931C413.93,190.21,415,187.63,415,185s-1.07-5.21-2.931-7.07
	C410.21,176.07,407.63,175,405,175s-5.21,1.069-7.07,2.93S395,182.37,395,185s1.069,5.21,2.93,7.069
	C399.79,193.93,402.37,195,405,195z"/>
<path d="M119,145c2.63,0,5.21-1.07,7.069-2.931C127.93,140.21,129,137.63,129,135s-1.07-5.21-2.931-7.07
	C124.21,126.07,121.63,125,119,125c-2.641,0-5.21,1.069-7.07,2.93S109,132.37,109,135s1.069,5.21,2.93,7.069
	C113.79,143.93,116.37,145,119,145z"/>
<g>
</g>
<g>
</g>
<g>
</g>
<g>
</g>
<g>
</g>
<g>
</g>
<g>
</g>
<g>
</g>
<g>
</g>
<g>
</g>
<g>
</g>
<g>
</g>
<g>
</g>
<g>
</g>
<g>
</g>
</svg>
